<?xml version="1.0" encoding="UTF-8"?>
<svg version="1.1" xmlns="http://www.w3.org/2000/svg" width="192" height="192">
<path d="M0 0 C63.36 0 126.72 0 192 0 C192 63.36 192 126.72 192 192 C128.64 192 65.28 192 0 192 C0 128.64 0 65.28 0 0 Z " fill="#FAFAFA" transform="translate(0,0)"/>
<path d="M0 0 C12.3780008 8.6828035 20.27740523 21.15632888 23.65625 35.86328125 C25.12593681 52.96975218 21.42422317 66.9884014 10.54296875 80.484375 C1.97845493 89.94132555 -11.52716939 97.3791875 -24.4375 98.234375 C-40.52181379 98.68338331 -53.27931252 94.8558743 -65.5078125 83.9296875 C-68.8856315 80.69317168 -68.8856315 80.69317168 -70.34375 78.86328125 C-70.34375 78.20328125 -70.34375 77.54328125 -70.34375 76.86328125 C-71.00375 76.86328125 -71.66375 76.86328125 -72.34375 76.86328125 C-73.64310464 74.34615936 -74.93329372 71.82499038 -76.21875 69.30078125 C-76.58355469 68.59630859 -76.94835937 67.89183594 -77.32421875 67.16601562 C-83.24824185 55.47953368 -84.55346204 42.4384479 -80.9074707 29.75439453 C-76.36226053 16.02839142 -66.76381008 4.16778367 -54.0546875 -2.8515625 C-36.23256096 -11.30038041 -17.00123301 -10.07573074 0 0 Z " fill="#242424" transform="translate(125.34375,51.13671875)"/>
</svg>
