<svg width="192" height="192" viewBox="0 0 192 192" fill="none" xmlns="http://www.w3.org/2000/svg">
<g clip-path="url(#clip0_3_2)">
<path d="M192 95.28C192 148.299 149.739 192 96.72 192C43.7007 192 0 149.739 0 96.72C0 43.7007 42.2607 0 95.28 0C148.299 0 192 42.2607 192 95.28Z" fill="#FAFAFA"/>
<path d="M125.344 51.1366C137.722 59.8194 145.621 72.2929 149 86.9999C150.47 104.106 146.768 118.125 135.887 131.621C127.322 141.078 113.817 148.516 100.906 149.371C84.8219 149.82 72.0644 145.992 59.8359 135.066C56.4581 131.83 56.4581 131.83 55 130C55 129.34 55 128.68 55 128C54.34 128 53.68 128 53 128C51.7006 125.483 50.4105 122.962 49.125 120.437C48.7602 119.733 48.3954 119.028 48.0195 118.303C42.0955 106.616 40.7903 93.5751 44.4363 80.891C48.9815 67.165 58.5799 55.3044 71.2891 48.2851C89.1112 39.8362 108.343 41.0609 125.344 51.1366Z" fill="#242424"/>
</g>
<defs>
<clipPath id="clip0_3_2">
<rect width="192" height="192" fill="white"/>
</clipPath>
</defs>
</svg>
